<?xml version="1.0" encoding="utf-8" ?>
<svg baseProfile="full" height="250px" version="1.1" width="250px" xmlns="http://www.w3.org/2000/svg" xmlns:ev="http://www.w3.org/2001/xml-events" xmlns:xlink="http://www.w3.org/1999/xlink"><defs /><rect fill="none" height="50" stroke="black" width="50" x="0" y="0" /><rect fill="none" height="50" stroke="black" width="50" x="0" y="50" /><path d="M 25 50 Q 0 50, 0 25" stroke="black" /><rect fill="none" height="50" stroke="black" width="50" x="0" y="100" /><path d="M 25 100 Q 0 100, 0 75" stroke="black" /><rect fill="none" height="50" stroke="black" width="50" x="0" y="150" /><path d="M 25 150 Q 0 150, 0 125" stroke="black" /><rect fill="none" height="50" stroke="black" width="50" x="0" y="200" /><path d="M 25 200 Q 0 200, 0 175" stroke="black" /><rect fill="none" height="50" stroke="black" width="50" x="50" y="0" /><path d="M 50 25 Q 50 0, 25 0" stroke="black" /><rect fill="none" height="50" stroke="black" width="50" x="50" y="50" /><path d="M 50 75 Q 50 50, 25 50" stroke="black" /><path d="M 75 50 Q 50 50, 50 25" stroke="black" /><rect fill="none" height="50" stroke="black" width="50" x="50" y="100" /><path d="M 50 125 Q 50 100, 25 100" stroke="black" /><path d="M 75 100 Q 50 100, 50 75" stroke="black" /><rect fill="none" height="50" stroke="black" width="50" x="50" y="150" /><path d="M 50 175 Q 50 150, 25 150" stroke="black" /><path d="M 75 150 Q 50 150, 50 125" stroke="black" /><rect fill="none" height="50" stroke="black" width="50" x="50" y="200" /><path d="M 50 225 Q 50 200, 25 200" stroke="black" /><path d="M 75 200 Q 50 200, 50 175" stroke="black" /><rect fill="none" height="50" stroke="black" width="50" x="100" y="0" /><path d="M 100 25 Q 100 0, 75 0" stroke="black" /><rect fill="none" height="50" stroke="black" width="50" x="100" y="50" /><path d="M 100 75 Q 100 50, 75 50" stroke="black" /><path d="M 125 50 Q 100 50, 100 25" stroke="black" /><rect fill="none" height="50" stroke="black" width="50" x="100" y="100" /><path d="M 100 125 Q 100 100, 75 100" stroke="black" /><path d="M 125 100 Q 100 100, 100 75" stroke="black" /><rect fill="none" height="50" stroke="black" width="50" x="100" y="150" /><path d="M 100 175 Q 100 150, 75 150" stroke="black" /><path d="M 125 150 Q 100 150, 100 125" stroke="black" /><rect fill="none" height="50" stroke="black" width="50" x="100" y="200" /><path d="M 100 225 Q 100 200, 75 200" stroke="black" /><path d="M 125 200 Q 100 200, 100 175" stroke="black" /><rect fill="none" height="50" stroke="black" width="50" x="150" y="0" /><path d="M 150 25 Q 150 0, 125 0" stroke="black" /><rect fill="none" height="50" stroke="black" width="50" x="150" y="50" /><path d="M 150 75 Q 150 50, 125 50" stroke="black" /><path d="M 175 50 Q 150 50, 150 25" stroke="black" /><rect fill="none" height="50" stroke="black" width="50" x="150" y="100" /><path d="M 150 125 Q 150 100, 125 100" stroke="black" /><path d="M 175 100 Q 150 100, 150 75" stroke="black" /><rect fill="none" height="50" stroke="black" width="50" x="150" y="150" /><path d="M 150 175 Q 150 150, 125 150" stroke="black" /><path d="M 175 150 Q 150 150, 150 125" stroke="black" /><rect fill="none" height="50" stroke="black" width="50" x="150" y="200" /><path d="M 150 225 Q 150 200, 125 200" stroke="black" /><path d="M 175 200 Q 150 200, 150 175" stroke="black" /><rect fill="none" height="50" stroke="black" width="50" x="200" y="0" /><path d="M 200 25 Q 200 0, 175 0" stroke="black" /><rect fill="none" height="50" stroke="black" width="50" x="200" y="50" /><path d="M 200 75 Q 200 50, 175 50" stroke="black" /><path d="M 225 50 Q 200 50, 200 25" stroke="black" /><rect fill="none" height="50" stroke="black" width="50" x="200" y="100" /><path d="M 200 125 Q 200 100, 175 100" stroke="black" /><path d="M 225 100 Q 200 100, 200 75" stroke="black" /><rect fill="none" height="50" stroke="black" width="50" x="200" y="150" /><path d="M 200 175 Q 200 150, 175 150" stroke="black" /><path d="M 225 150 Q 200 150, 200 125" stroke="black" /><rect fill="none" height="50" stroke="black" width="50" x="200" y="200" /><path d="M 200 225 Q 200 200, 175 200" stroke="black" /><path d="M 225 200 Q 200 200, 200 175" stroke="black" /></svg>