<?xml version="1.0" encoding="UTF-8" standalone="no"?>
<!DOCTYPE svg PUBLIC "-//W3C//DTD SVG 1.1//EN"
"http://www.w3.org/Graphics/SVG/1.1/DTD/svg11.dtd">
<svg width="300" height="200"
xmlns="http://www.w3.org/2000/svg" version="1.1">
<rect x="0" y="0" width="20" height="9" fill="rgb(37,37,37)"/>
<rect x="20" y="0" width="20" height="6" fill="rgb(25,25,25)"/>
<rect x="40" y="0" width="18" height="7" fill="rgb(160,160,160)"/>
<rect x="60" y="0" width="15" height="10" fill="rgb(222,222,222)"/>
<rect x="80" y="0" width="19" height="10" fill="rgb(176,176,176)"/>
<rect x="100" y="0" width="14" height="9" fill="rgb(159,159,159)"/>
<rect x="120" y="0" width="15" height="5" fill="rgb(164,164,164)"/>
<rect x="140" y="0" width="15" height="9" fill="rgb(147,147,147)"/>
<rect x="160" y="0" width="20" height="8" fill="rgb(74,74,74)"/>
<rect x="180" y="0" width="20" height="6" fill="rgb(218,218,218)"/>
<rect x="200" y="0" width="11" height="9" fill="rgb(36,36,36)"/>
<rect x="220" y="0" width="20" height="10" fill="rgb(237,237,237)"/>
<rect x="240" y="0" width="16" height="5" fill="rgb(45,45,45)"/>
<rect x="260" y="0" width="18" height="9" fill="rgb(73,73,73)"/>
<rect x="280" y="0" width="12" height="6" fill="rgb(172,172,172)"/>
<rect x="0" y="10" width="16" height="9" fill="rgb(226,226,226)"/>
<rect x="20" y="10" width="11" height="5" fill="rgb(47,47,47)"/>
<rect x="40" y="10" width="20" height="6" fill="rgb(59,59,59)"/>
<rect x="60" y="10" width="15" height="8" fill="rgb(23,23,23)"/>
<rect x="80" y="10" width="19" height="7" fill="rgb(28,28,28)"/>
<rect x="100" y="10" width="11" height="10" fill="rgb(3,3,3)"/>
<rect x="120" y="10" width="18" height="10" fill="rgb(28,28,28)"/>
<rect x="140" y="10" width="10" height="8" fill="rgb(86,86,86)"/>
<rect x="160" y="10" width="18" height="10" fill="rgb(71,71,71)"/>
<rect x="180" y="10" width="14" height="7" fill="rgb(44,44,44)"/>
<rect x="200" y="10" width="20" height="10" fill="rgb(136,136,136)"/>
<rect x="220" y="10" width="20" height="10" fill="rgb(127,127,127)"/>
<rect x="240" y="10" width="18" height="5" fill="rgb(70,70,70)"/>
<rect x="260" y="10" width="11" height="10" fill="rgb(93,93,93)"/>
<rect x="280" y="10" width="19" height="10" fill="rgb(194,194,194)"/>
<rect x="0" y="20" width="16" height="9" fill="rgb(160,160,160)"/>
<rect x="20" y="20" width="19" height="6" fill="rgb(69,69,69)"/>
<rect x="40" y="20" width="19" height="7" fill="rgb(174,174,174)"/>
<rect x="60" y="20" width="11" height="9" fill="rgb(6,6,6)"/>
<rect x="80" y="20" width="17" height="6" fill="rgb(190,190,190)"/>
<rect x="100" y="20" width="14" height="5" fill="rgb(230,230,230)"/>
<rect x="120" y="20" width="11" height="7" fill="rgb(219,219,219)"/>
<rect x="140" y="20" width="19" height="6" fill="rgb(113,113,113)"/>
<rect x="160" y="20" width="14" height="10" fill="rgb(128,128,128)"/>
<rect x="180" y="20" width="15" height="10" fill="rgb(143,143,143)"/>
<rect x="200" y="20" width="18" height="9" fill="rgb(81,81,81)"/>
<rect x="220" y="20" width="20" height="5" fill="rgb(144,144,144)"/>
<rect x="240" y="20" width="13" height="6" fill="rgb(237,237,237)"/>
<rect x="260" y="20" width="18" height="9" fill="rgb(96,96,96)"/>
<rect x="280" y="20" width="13" height="7" fill="rgb(194,194,194)"/>
<rect x="0" y="30" width="19" height="5" fill="rgb(10,10,10)"/>
<rect x="20" y="30" width="10" height="10" fill="rgb(245,245,245)"/>
<rect x="40" y="30" width="12" height="5" fill="rgb(89,89,89)"/>
<rect x="60" y="30" width="11" height="9" fill="rgb(45,45,45)"/>
<rect x="80" y="30" width="15" height="7" fill="rgb(137,137,137)"/>
<rect x="100" y="30" width="10" height="8" fill="rgb(173,173,173)"/>
<rect x="120" y="30" width="20" height="10" fill="rgb(99,99,99)"/>
<rect x="140" y="30" width="11" height="5" fill="rgb(171,171,171)"/>
<rect x="160" y="30" width="17" height="9" fill="rgb(156,156,156)"/>
<rect x="180" y="30" width="14" height="6" fill="rgb(48,48,48)"/>
<rect x="200" y="30" width="17" height="8" fill="rgb(0,0,0)"/>
<rect x="220" y="30" width="14" height="7" fill="rgb(14,14,14)"/>
<rect x="240" y="30" width="18" height="7" fill="rgb(36,36,36)"/>
<rect x="260" y="30" width="19" height="10" fill="rgb(106,106,106)"/>
<rect x="280" y="30" width="15" height="9" fill="rgb(133,133,133)"/>
<rect x="0" y="40" width="10" height="10" fill="rgb(121,121,121)"/>
<rect x="20" y="40" width="16" height="6" fill="rgb(96,96,96)"/>
<rect x="40" y="40" width="12" height="9" fill="rgb(102,102,102)"/>
<rect x="60" y="40" width="11" height="7" fill="rgb(138,138,138)"/>
<rect x="80" y="40" width="19" height="6" fill="rgb(190,190,190)"/>
<rect x="100" y="40" width="20" height="7" fill="rgb(209,209,209)"/>
<rect x="120" y="40" width="15" height="5" fill="rgb(7,7,7)"/>
<rect x="140" y="40" width="17" height="5" fill="rgb(142,142,142)"/>
<rect x="160" y="40" width="15" height="8" fill="rgb(241,241,241)"/>
<rect x="180" y="40" width="11" height="7" fill="rgb(134,134,134)"/>
<rect x="200" y="40" width="11" height="6" fill="rgb(139,139,139)"/>
<rect x="220" y="40" width="12" height="9" fill="rgb(213,213,213)"/>
<rect x="240" y="40" width="15" height="7" fill="rgb(29,29,29)"/>
<rect x="260" y="40" width="18" height="5" fill="rgb(125,125,125)"/>
<rect x="280" y="40" width="14" height="6" fill="rgb(27,27,27)"/>
<rect x="0" y="50" width="11" height="9" fill="rgb(71,71,71)"/>
<rect x="20" y="50" width="19" height="8" fill="rgb(154,154,154)"/>
<rect x="40" y="50" width="18" height="8" fill="rgb(112,112,112)"/>
<rect x="60" y="50" width="11" height="9" fill="rgb(237,237,237)"/>
<rect x="80" y="50" width="13" height="8" fill="rgb(179,179,179)"/>
<rect x="100" y="50" width="18" height="9" fill="rgb(161,161,161)"/>
<rect x="120" y="50" width="13" height="9" fill="rgb(147,147,147)"/>
<rect x="140" y="50" width="15" height="9" fill="rgb(131,131,131)"/>
<rect x="160" y="50" width="19" height="10" fill="rgb(222,222,222)"/>
<rect x="180" y="50" width="18" height="5" fill="rgb(95,95,95)"/>
<rect x="200" y="50" width="18" height="9" fill="rgb(40,40,40)"/>
<rect x="220" y="50" width="12" height="6" fill="rgb(154,154,154)"/>
<rect x="240" y="50" width="10" height="10" fill="rgb(105,105,105)"/>
<rect x="260" y="50" width="13" height="7" fill="rgb(77,77,77)"/>
<rect x="280" y="50" width="20" height="9" fill="rgb(148,148,148)"/>
<rect x="0" y="60" width="11" height="9" fill="rgb(247,247,247)"/>
<rect x="20" y="60" width="12" height="5" fill="rgb(201,201,201)"/>
<rect x="40" y="60" width="14" height="6" fill="rgb(245,245,245)"/>
<rect x="60" y="60" width="10" height="9" fill="rgb(93,93,93)"/>
<rect x="80" y="60" width="10" height="5" fill="rgb(238,238,238)"/>
<rect x="100" y="60" width="17" height="10" fill="rgb(65,65,65)"/>
<rect x="120" y="60" width="18" height="7" fill="rgb(124,124,124)"/>
<rect x="140" y="60" width="20" height="10" fill="rgb(231,231,231)"/>
<rect x="160" y="60" width="18" height="8" fill="rgb(124,124,124)"/>
<rect x="180" y="60" width="10" height="9" fill="rgb(191,191,191)"/>
<rect x="200" y="60" width="20" height="5" fill="rgb(247,247,247)"/>
<rect x="220" y="60" width="19" height="10" fill="rgb(127,127,127)"/>
<rect x="240" y="60" width="12" height="7" fill="rgb(161,161,161)"/>
<rect x="260" y="60" width="13" height="5" fill="rgb(94,94,94)"/>
<rect x="280" y="60" width="12" height="5" fill="rgb(248,248,248)"/>
<rect x="0" y="70" width="16" height="8" fill="rgb(211,211,211)"/>
<rect x="20" y="70" width="17" height="10" fill="rgb(73,73,73)"/>
<rect x="40" y="70" width="14" height="9" fill="rgb(248,248,248)"/>
<rect x="60" y="70" width="13" height="7" fill="rgb(129,129,129)"/>
<rect x="80" y="70" width="20" height="7" fill="rgb(37,37,37)"/>
<rect x="100" y="70" width="18" height="8" fill="rgb(253,253,253)"/>
<rect x="120" y="70" width="17" height="6" fill="rgb(66,66,66)"/>
<rect x="140" y="70" width="11" height="10" fill="rgb(234,234,234)"/>
<rect x="160" y="70" width="20" height="7" fill="rgb(65,65,65)"/>
<rect x="180" y="70" width="18" height="9" fill="rgb(205,205,205)"/>
<rect x="200" y="70" width="19" height="9" fill="rgb(218,218,218)"/>
<rect x="220" y="70" width="18" height="5" fill="rgb(113,113,113)"/>
<rect x="240" y="70" width="20" height="5" fill="rgb(187,187,187)"/>
<rect x="260" y="70" width="17" height="9" fill="rgb(215,215,215)"/>
<rect x="280" y="70" width="15" height="5" fill="rgb(40,40,40)"/>
<rect x="0" y="80" width="15" height="8" fill="rgb(6,6,6)"/>
<rect x="20" y="80" width="18" height="5" fill="rgb(21,21,21)"/>
<rect x="40" y="80" width="19" height="9" fill="rgb(48,48,48)"/>
<rect x="60" y="80" width="19" height="7" fill="rgb(123,123,123)"/>
<rect x="80" y="80" width="17" height="8" fill="rgb(121,121,121)"/>
<rect x="100" y="80" width="13" height="8" fill="rgb(255,255,255)"/>
<rect x="120" y="80" width="18" height="9" fill="rgb(64,64,64)"/>
<rect x="140" y="80" width="15" height="10" fill="rgb(147,147,147)"/>
<rect x="160" y="80" width="18" height="10" fill="rgb(127,127,127)"/>
<rect x="180" y="80" width="10" height="8" fill="rgb(228,228,228)"/>
<rect x="200" y="80" width="12" height="10" fill="rgb(70,70,70)"/>
<rect x="220" y="80" width="18" height="8" fill="rgb(72,72,72)"/>
<rect x="240" y="80" width="14" height="6" fill="rgb(30,30,30)"/>
<rect x="260" y="80" width="13" height="10" fill="rgb(172,172,172)"/>
<rect x="280" y="80" width="16" height="7" fill="rgb(103,103,103)"/>
<rect x="0" y="90" width="15" height="7" fill="rgb(187,187,187)"/>
<rect x="20" y="90" width="17" height="6" fill="rgb(23,23,23)"/>
<rect x="40" y="90" width="16" height="6" fill="rgb(151,151,151)"/>
<rect x="60" y="90" width="14" height="10" fill="rgb(206,206,206)"/>
<rect x="80" y="90" width="16" height="6" fill="rgb(42,42,42)"/>
<rect x="100" y="90" width="16" height="5" fill="rgb(116,116,116)"/>
<rect x="120" y="90" width="11" height="6" fill="rgb(149,149,149)"/>
<rect x="140" y="90" width="17" height="10" fill="rgb(251,251,251)"/>
<rect x="160" y="90" width="14" height="9" fill="rgb(195,195,195)"/>
<rect x="180" y="90" width="17" height="9" fill="rgb(214,214,214)"/>
<rect x="200" y="90" width="15" height="5" fill="rgb(8,8,8)"/>
<rect x="220" y="90" width="16" height="9" fill="rgb(83,83,83)"/>
<rect x="240" y="90" width="11" height="8" fill="rgb(144,144,144)"/>
<rect x="260" y="90" width="19" height="9" fill="rgb(67,67,67)"/>
<rect x="280" y="90" width="10" height="9" fill="rgb(244,244,244)"/>
<rect x="0" y="100" width="17" height="8" fill="rgb(102,102,102)"/>
<rect x="20" y="100" width="18" height="6" fill="rgb(163,163,163)"/>
<rect x="40" y="100" width="18" height="7" fill="rgb(211,211,211)"/>
<rect x="60" y="100" width="20" height="10" fill="rgb(214,214,214)"/>
<rect x="80" y="100" width="12" height="8" fill="rgb(78,78,78)"/>
<rect x="100" y="100" width="19" height="9" fill="rgb(30,30,30)"/>
<rect x="120" y="100" width="18" height="8" fill="rgb(66,66,66)"/>
<rect x="140" y="100" width="11" height="9" fill="rgb(93,93,93)"/>
<rect x="160" y="100" width="19" height="10" fill="rgb(40,40,40)"/>
<rect x="180" y="100" width="16" height="10" fill="rgb(102,102,102)"/>
<rect x="200" y="100" width="12" height="5" fill="rgb(221,221,221)"/>
<rect x="220" y="100" width="10" height="10" fill="rgb(141,141,141)"/>
<rect x="240" y="100" width="11" height="6" fill="rgb(16,16,16)"/>
<rect x="260" y="100" width="14" height="8" fill="rgb(0,0,0)"/>
<rect x="280" y="100" width="10" height="10" fill="rgb(103,103,103)"/>
<rect x="0" y="110" width="17" height="6" fill="rgb(24,24,24)"/>
<rect x="20" y="110" width="19" height="8" fill="rgb(134,134,134)"/>
<rect x="40" y="110" width="17" height="7" fill="rgb(172,172,172)"/>
<rect x="60" y="110" width="10" height="10" fill="rgb(62,62,62)"/>
<rect x="80" y="110" width="14" height="5" fill="rgb(228,228,228)"/>
<rect x="100" y="110" width="12" height="5" fill="rgb(162,162,162)"/>
<rect x="120" y="110" width="13" height="5" fill="rgb(134,134,134)"/>
<rect x="140" y="110" width="10" height="8" fill="rgb(60,60,60)"/>
<rect x="160" y="110" width="19" height="10" fill="rgb(12,12,12)"/>
<rect x="180" y="110" width="19" height="9" fill="rgb(45,45,45)"/>
<rect x="200" y="110" width="12" height="5" fill="rgb(136,136,136)"/>
<rect x="220" y="110" width="17" height="10" fill="rgb(157,157,157)"/>
<rect x="240" y="110" width="16" height="8" fill="rgb(35,35,35)"/>
<rect x="260" y="110" width="11" height="8" fill="rgb(2,2,2)"/>
<rect x="280" y="110" width="10" height="8" fill="rgb(218,218,218)"/>
<rect x="0" y="120" width="16" height="9" fill="rgb(67,67,67)"/>
<rect x="20" y="120" width="18" height="9" fill="rgb(201,201,201)"/>
<rect x="40" y="120" width="19" height="5" fill="rgb(1,1,1)"/>
<rect x="60" y="120" width="20" height="8" fill="rgb(148,148,148)"/>
<rect x="80" y="120" width="16" height="9" fill="rgb(163,163,163)"/>
<rect x="100" y="120" width="16" height="5" fill="rgb(97,97,97)"/>
<rect x="120" y="120" width="19" height="8" fill="rgb(149,149,149)"/>
<rect x="140" y="120" width="15" height="7" fill="rgb(55,55,55)"/>
<rect x="160" y="120" width="10" height="9" fill="rgb(210,210,210)"/>
<rect x="180" y="120" width="13" height="8" fill="rgb(240,240,240)"/>
<rect x="200" y="120" width="18" height="8" fill="rgb(254,254,254)"/>
<rect x="220" y="120" width="14" height="6" fill="rgb(71,71,71)"/>
<rect x="240" y="120" width="16" height="8" fill="rgb(186,186,186)"/>
<rect x="260" y="120" width="19" height="8" fill="rgb(101,101,101)"/>
<rect x="280" y="120" width="10" height="9" fill="rgb(51,51,51)"/>
<rect x="0" y="130" width="13" height="5" fill="rgb(119,119,119)"/>
<rect x="20" y="130" width="14" height="9" fill="rgb(120,120,120)"/>
<rect x="40" y="130" width="11" height="8" fill="rgb(101,101,101)"/>
<rect x="60" y="130" width="11" height="5" fill="rgb(35,35,35)"/>
<rect x="80" y="130" width="13" height="7" fill="rgb(221,221,221)"/>
<rect x="100" y="130" width="18" height="9" fill="rgb(57,57,57)"/>
<rect x="120" y="130" width="16" height="7" fill="rgb(73,73,73)"/>
<rect x="140" y="130" width="14" height="8" fill="rgb(209,209,209)"/>
<rect x="160" y="130" width="19" height="7" fill="rgb(180,180,180)"/>
<rect x="180" y="130" width="16" height="9" fill="rgb(87,87,87)"/>
<rect x="200" y="130" width="14" height="7" fill="rgb(29,29,29)"/>
<rect x="220" y="130" width="12" height="6" fill="rgb(78,78,78)"/>
<rect x="240" y="130" width="15" height="5" fill="rgb(115,115,115)"/>
<rect x="260" y="130" width="11" height="7" fill="rgb(69,69,69)"/>
<rect x="280" y="130" width="15" height="10" fill="rgb(182,182,182)"/>
<rect x="0" y="140" width="10" height="6" fill="rgb(133,133,133)"/>
<rect x="20" y="140" width="17" height="10" fill="rgb(81,81,81)"/>
<rect x="40" y="140" width="15" height="10" fill="rgb(92,92,92)"/>
<rect x="60" y="140" width="15" height="10" fill="rgb(190,190,190)"/>
<rect x="80" y="140" width="12" height="10" fill="rgb(164,164,164)"/>
<rect x="100" y="140" width="14" height="8" fill="rgb(184,184,184)"/>
<rect x="120" y="140" width="11" height="8" fill="rgb(15,15,15)"/>
<rect x="140" y="140" width="11" height="7" fill="rgb(85,85,85)"/>
<rect x="160" y="140" width="19" height="7" fill="rgb(31,31,31)"/>
<rect x="180" y="140" width="17" height="6" fill="rgb(169,169,169)"/>
<rect x="200" y="140" width="17" height="9" fill="rgb(31,31,31)"/>
<rect x="220" y="140" width="20" height="10" fill="rgb(175,175,175)"/>
<rect x="240" y="140" width="20" height="5" fill="rgb(119,119,119)"/>
<rect x="260" y="140" width="20" height="7" fill="rgb(96,96,96)"/>
<rect x="280" y="140" width="10" height="9" fill="rgb(68,68,68)"/>
<rect x="0" y="150" width="18" height="7" fill="rgb(72,72,72)"/>
<rect x="20" y="150" width="19" height="7" fill="rgb(86,86,86)"/>
<rect x="40" y="150" width="15" height="8" fill="rgb(188,188,188)"/>
<rect x="60" y="150" width="18" height="10" fill="rgb(136,136,136)"/>
<rect x="80" y="150" width="10" height="8" fill="rgb(224,224,224)"/>
<rect x="100" y="150" width="18" height="5" fill="rgb(116,116,116)"/>
<rect x="120" y="150" width="16" height="7" fill="rgb(5,5,5)"/>
<rect x="140" y="150" width="18" height="6" fill="rgb(244,244,244)"/>
<rect x="160" y="150" width="20" height="6" fill="rgb(124,124,124)"/>
<rect x="180" y="150" width="16" height="7" fill="rgb(39,39,39)"/>
<rect x="200" y="150" width="12" height="8" fill="rgb(117,117,117)"/>
<rect x="220" y="150" width="10" height="9" fill="rgb(124,124,124)"/>
<rect x="240" y="150" width="11" height="6" fill="rgb(42,42,42)"/>
<rect x="260" y="150" width="19" height="9" fill="rgb(32,32,32)"/>
<rect x="280" y="150" width="14" height="7" fill="rgb(164,164,164)"/>
<rect x="0" y="160" width="16" height="5" fill="rgb(140,140,140)"/>
<rect x="20" y="160" width="16" height="7" fill="rgb(48,48,48)"/>
<rect x="40" y="160" width="11" height="5" fill="rgb(30,30,30)"/>
<rect x="60" y="160" width="19" height="9" fill="rgb(167,167,167)"/>
<rect x="80" y="160" width="11" height="10" fill="rgb(38,38,38)"/>
<rect x="100" y="160" width="18" height="5" fill="rgb(241,241,241)"/>
<rect x="120" y="160" width="12" height="5" fill="rgb(190,190,190)"/>
<rect x="140" y="160" width="12" height="7" fill="rgb(38,38,38)"/>
<rect x="160" y="160" width="20" height="6" fill="rgb(63,63,63)"/>
<rect x="180" y="160" width="18" height="5" fill="rgb(215,215,215)"/>
<rect x="200" y="160" width="18" height="7" fill="rgb(132,132,132)"/>
<rect x="220" y="160" width="12" height="9" fill="rgb(12,12,12)"/>
<rect x="240" y="160" width="13" height="5" fill="rgb(216,216,216)"/>
<rect x="260" y="160" width="11" height="10" fill="rgb(124,124,124)"/>
<rect x="280" y="160" width="19" height="9" fill="rgb(9,9,9)"/>
<rect x="0" y="170" width="10" height="5" fill="rgb(162,162,162)"/>
<rect x="20" y="170" width="18" height="8" fill="rgb(145,145,145)"/>
<rect x="40" y="170" width="20" height="9" fill="rgb(188,188,188)"/>
<rect x="60" y="170" width="19" height="8" fill="rgb(145,145,145)"/>
<rect x="80" y="170" width="12" height="10" fill="rgb(36,36,36)"/>
<rect x="100" y="170" width="11" height="8" fill="rgb(161,161,161)"/>
<rect x="120" y="170" width="15" height="8" fill="rgb(240,240,240)"/>
<rect x="140" y="170" width="10" height="8" fill="rgb(129,129,129)"/>
<rect x="160" y="170" width="10" height="5" fill="rgb(160,160,160)"/>
<rect x="180" y="170" width="17" height="6" fill="rgb(65,65,65)"/>
<rect x="200" y="170" width="16" height="9" fill="rgb(20,20,20)"/>
<rect x="220" y="170" width="17" height="6" fill="rgb(54,54,54)"/>
<rect x="240" y="170" width="16" height="7" fill="rgb(170,170,170)"/>
<rect x="260" y="170" width="16" height="5" fill="rgb(73,73,73)"/>
<rect x="280" y="170" width="17" height="9" fill="rgb(134,134,134)"/>
<rect x="0" y="180" width="16" height="9" fill="rgb(113,113,113)"/>
<rect x="20" y="180" width="17" height="7" fill="rgb(221,221,221)"/>
<rect x="40" y="180" width="20" height="5" fill="rgb(138,138,138)"/>
<rect x="60" y="180" width="11" height="7" fill="rgb(227,227,227)"/>
<rect x="80" y="180" width="15" height="6" fill="rgb(222,222,222)"/>
<rect x="100" y="180" width="16" height="6" fill="rgb(207,207,207)"/>
<rect x="120" y="180" width="19" height="8" fill="rgb(241,241,241)"/>
<rect x="140" y="180" width="11" height="7" fill="rgb(5,5,5)"/>
<rect x="160" y="180" width="20" height="6" fill="rgb(108,108,108)"/>
<rect x="180" y="180" width="20" height="5" fill="rgb(69,69,69)"/>
<rect x="200" y="180" width="20" height="8" fill="rgb(26,26,26)"/>
<rect x="220" y="180" width="11" height="8" fill="rgb(200,200,200)"/>
<rect x="240" y="180" width="19" height="9" fill="rgb(216,216,216)"/>
<rect x="260" y="180" width="19" height="10" fill="rgb(26,26,26)"/>
<rect x="280" y="180" width="15" height="10" fill="rgb(224,224,224)"/>
<rect x="0" y="190" width="13" height="9" fill="rgb(178,178,178)"/>
<rect x="20" y="190" width="20" height="6" fill="rgb(52,52,52)"/>
<rect x="40" y="190" width="16" height="5" fill="rgb(226,226,226)"/>
<rect x="60" y="190" width="19" height="9" fill="rgb(165,165,165)"/>
<rect x="80" y="190" width="14" height="8" fill="rgb(183,183,183)"/>
<rect x="100" y="190" width="11" height="5" fill="rgb(242,242,242)"/>
<rect x="120" y="190" width="11" height="10" fill="rgb(83,83,83)"/>
<rect x="140" y="190" width="15" height="7" fill="rgb(220,220,220)"/>
<rect x="160" y="190" width="17" height="8" fill="rgb(16,16,16)"/>
<rect x="180" y="190" width="19" height="10" fill="rgb(142,142,142)"/>
<rect x="200" y="190" width="15" height="5" fill="rgb(9,9,9)"/>
<rect x="220" y="190" width="10" height="5" fill="rgb(84,84,84)"/>
<rect x="240" y="190" width="12" height="6" fill="rgb(230,230,230)"/>
<rect x="260" y="190" width="11" height="9" fill="rgb(61,61,61)"/>
<rect x="280" y="190" width="19" height="8" fill="rgb(209,209,209)"/>
</svg>
