<?xml version="1.0" encoding="UTF-8"?>
<svg viewBox="-5.9 -5.9 19.8 11.8" height="11.8mm" width="19.8mm" xmlns:svgjs="http://svgjs.com/svgjs" xmlns:xlink="http://www.w3.org/1999/xlink" version="1.1" xmlns="http://www.w3.org/2000/svg" id="SvgjsSvg1045">
  <defs id="SvgjsDefs1046">
  </defs>
  <defs id="SvgjsDefs1046">
  </defs>
  <g id="SvgjsG1047">
    <g transform="matrix(1,0,0,1,0,0)" id="SvgjsG1048">
      <g fill="none" stroke-width="0.04" stroke="blue" id="SvgjsG1049">
      </g>
      <g fill="none" stroke-width="0.1" stroke="black" id="SvgjsG1050">
        <circle cy="0" cx="0" r="2" id="SvgjsCircle1051">
        </circle>
        <path d="M3.7053468957589617 -3.221529175002055  L3.6827058151481173 -3.0949170331325915 L3.6559719175582632 -2.9746842367762927 L3.6262426305622464 -2.863276956966091 L3.5934273959644 -2.7582223008185016 L3.558995050241995 -2.662271816879895 L3.5228042451559642 -2.573310411612078 L3.4854978695447403 -2.49161520221303 L3.4476953073113332 -2.417258739221643 L3.374628471239557 -2.2930959413856566 L3.3047407300068623 -2.194235778906567 L3.2460713080212913 -2.1243437491472377 L3.197955089331192 -2.0758273807859666 L3.108125229865881 -2.045102163969117 L3.0144939787316702 -2.005994112227278 L2.9296059881916126 -1.9629200682788497 L2.8536034417069396 -1.9165558899959863 L2.7866100451482323 -1.867569781582194 L2.7286994835751233 -1.8166200518646862 L2.6799062451582967 -1.764381245553681 L2.6402256211794928 -1.7115441432424001 L2.6096012969828233 -1.6587673257227988 L2.587958480321751 -1.606701720118185 L2.575160877635817 -1.5560160745615488 L2.5710483058129108 -1.5073584178875836 L2.575423626559624 -1.4613614715936896 L2.590170570908901 -1.4135559004501574 L2.6854143407503352 -1.2211154566593783 L2.725444620908296 -1.1289161254770148 L2.762333710655718 -1.0354156706246098 L2.8310621379140777 -0.8319922123249526 L2.854438117097011 -0.7877609044397104 L2.8838690507654294 -0.7521423328315574 L2.9211832371803306 -0.7206442012648433 L2.966072672504401 -0.6938533092250829 L3.0181923977190297 -0.6723411488604978 L3.077165910585305 -0.6566769706116631 L3.142585822224985 -0.6473739355662349 L3.2140262661691774 -0.6449375511432223 L3.2910021163427157 -0.6498596025510177 L3.3730120107874284 -0.662592678109067 L3.4595383516621414 -0.6835501692478702 L3.5500211739833767 -0.7131170944309834 L3.6438820351770063 -0.7516708184533156 L3.7291273471225836 -0.7934641120696505 L3.797456904710207 -0.7931811635236753 L3.8883635790382134 -0.7852455814642539 L4.00768636606383 -0.7647589859335351 L4.1471487776509495 -0.7286286848788134 L4.226457184958674 -0.7027811737740259 L4.310604012691385 -0.6713935283936927 L4.399099989313076 -0.6340790791578674 L4.491294572316668 -0.5905791864592203 L4.588783306984214 -0.5394982016124026 L4.688581930446279 -0.48174313901978705 L4.792503076344173 -0.4156294336685593 L4.898041042073943 -0.342110791205428 L4.992640651253668 -0.27031902417156584 A5 5 0 0 1 4.992640651253668 0.2703190241715663 L4.898041042073943 0.34211079120542864 L4.792503076344173 0.41562943366855976 L4.688581930446279 0.4817431390197875 L4.588783306984214 0.5394982016124032 L4.491294572316668 0.5905791864592209 L4.399099989313076 0.6340790791578679 L4.310604012691385 0.6713935283936932 L4.226457184958674 0.7027811737740264 L4.1471487776509495 0.7286286848788138 L4.00768636606383 0.7647589859335355 L3.8883635790382134 0.7852455814642544 L3.797456904710207 0.7931811635236757 L3.729127347122584 0.7934641120696507 L3.6438820351770063 0.7516708184533161 L3.5500211739833767 0.7131170944309838 L3.4595383516621414 0.6835501692478706 L3.3730120107874284 0.6625926781090674 L3.2910021163427157 0.6498596025510179 L3.2140262661691774 0.6449375511432227 L3.142585822224985 0.6473739355662353 L3.077165910585305 0.6566769706116635 L3.0181923977190297 0.6723411488604982 L2.966072672504401 0.6938533092250834 L2.9211832371803306 0.7206442012648435 L2.8838690507654294 0.7521423328315576 L2.854438117097011 0.7877609044397106 L2.8310621379140777 0.8319922123249528 L2.762333710655718 1.0354156706246103 L2.725444620908296 1.128916125477015 L2.6854143407503352 1.2211154566593787 L2.590170570908901 1.4135559004501577 L2.575423626559624 1.4613614715936896 L2.5710483058129108 1.507358417887584 L2.575160877635817 1.556016074561549 L2.587958480321751 1.6067017201181855 L2.6096012969828233 1.6587673257227993 L2.6402256211794928 1.7115441432424006 L2.6799062451582967 1.7643812455536814 L2.7286994835751233 1.8166200518646867 L2.7866100451482323 1.8675697815821943 L2.8536034417069396 1.9165558899959867 L2.9296059881916126 1.9629200682788501 L3.0144939787316702 2.0059941122272784 L3.108125229865881 2.0451021639691174 L3.1979550893311917 2.075827380785967 L3.2460713080212913 2.124343749147238 L3.3047407300068623 2.1942357789065676 L3.374628471239557 2.2930959413856566 L3.4476953073113332 2.4172587392216434 L3.4854978695447403 2.49161520221303 L3.522804245155964 2.573310411612078 L3.558995050241995 2.662271816879896 L3.5934273959643996 2.758222300818502 L3.626242630562246 2.863276956966092 L3.6559719175582632 2.974684236776293 L3.6827058151481173 3.094917033132592 L3.7053468957589617 3.2215291750020554 L3.721474475604534 3.339185645453645 A5 5 0 0 1 3.339185645453645 3.721474475604534 L3.221529175002055 3.7053468957589617 L3.0949170331325915 3.6827058151481173 L2.9746842367762927 3.6559719175582632 L2.863276956966092 3.6262426305622464 L2.7582223008185016 3.5934273959643996 L2.6622718168798953 3.558995050241995 L2.573310411612078 3.522804245155964 L2.49161520221303 3.4854978695447403 L2.417258739221643 3.4476953073113332 L2.2930959413856566 3.374628471239557 L2.194235778906567 3.3047407300068623 L2.1243437491472377 3.2460713080212913 L2.0758273807859666 3.197955089331192 L2.0451021639691174 3.108125229865881 L2.0059941122272784 3.0144939787316702 L1.9629200682788501 2.9296059881916126 L1.9165558899959865 2.8536034417069396 L1.867569781582194 2.7866100451482323 L1.8166200518646864 2.7286994835751233 L1.7643812455536811 2.6799062451582967 L1.7115441432424003 2.6402256211794928 L1.658767325722799 2.6096012969828233 L1.6067017201181852 2.587958480321751 L1.5560160745615488 2.575160877635817 L1.5073584178875836 2.5710483058129108 L1.4613614715936896 2.575423626559624 L1.4135559004501574 2.590170570908901 L1.2211154566593785 2.6854143407503352 L1.128916125477015 2.725444620908296 L1.03541567062461 2.762333710655718 L0.8319922123249526 2.8310621379140777 L0.7877609044397106 2.854438117097011 L0.7521423328315574 2.8838690507654294 L0.7206442012648433 2.9211832371803306 L0.6938533092250831 2.966072672504401 L0.672341148860498 3.0181923977190297 L0.6566769706116633 3.077165910585305 L0.6473739355662351 3.142585822224985 L0.6449375511432225 3.2140262661691774 L0.6498596025510177 3.2910021163427157 L0.6625926781090672 3.3730120107874284 L0.6835501692478704 3.4595383516621414 L0.7131170944309836 3.5500211739833767 L0.7516708184533158 3.6438820351770063 L0.7934641120696505 3.7291273471225836 L0.7931811635236755 3.797456904710207 L0.7852455814642542 3.8883635790382134 L0.7647589859335353 4.00768636606383 L0.7286286848788136 4.1471487776509495 L0.7027811737740262 4.226457184958674 L0.6713935283936929 4.310604012691385 L0.6340790791578677 4.399099989313076 L0.5905791864592207 4.491294572316668 L0.539498201612403 4.588783306984214 L0.48174313901978727 4.688581930446279 L0.41562943366855953 4.792503076344173 L0.3421107912054284 4.898041042073943 L0.27031902417156606 4.992640651253668 A5 5 0 0 1 -0.27031902417156606 4.992640651253668 L-0.3421107912054284 4.898041042073943 L-0.41562943366855953 4.792503076344173 L-0.48174313901978727 4.688581930446279 L-0.539498201612403 4.588783306984214 L-0.5905791864592207 4.491294572316668 L-0.6340790791578677 4.399099989313076 L-0.6713935283936929 4.310604012691385 L-0.7027811737740262 4.226457184958674 L-0.7286286848788136 4.1471487776509495 L-0.7647589859335353 4.00768636606383 L-0.7852455814642542 3.8883635790382134 L-0.7931811635236755 3.797456904710207 L-0.7934641120696505 3.7291273471225836 L-0.7516708184533158 3.6438820351770063 L-0.7131170944309836 3.5500211739833767 L-0.6835501692478704 3.4595383516621414 L-0.6625926781090672 3.3730120107874284 L-0.6498596025510177 3.2910021163427157 L-0.6449375511432225 3.2140262661691774 L-0.6473739355662351 3.142585822224985 L-0.6566769706116633 3.077165910585305 L-0.672341148860498 3.0181923977190297 L-0.6938533092250831 2.966072672504401 L-0.7206442012648433 2.9211832371803306 L-0.7521423328315574 2.8838690507654294 L-0.7877609044397106 2.854438117097011 L-0.8319922123249526 2.8310621379140777 L-1.03541567062461 2.762333710655718 L-1.128916125477015 2.725444620908296 L-1.2211154566593785 2.6854143407503352 L-1.4135559004501574 2.590170570908901 L-1.4613614715936896 2.575423626559624 L-1.5073584178875836 2.5710483058129108 L-1.5560160745615488 2.575160877635817 L-1.6067017201181852 2.587958480321751 L-1.658767325722799 2.6096012969828233 L-1.7115441432424003 2.6402256211794928 L-1.7643812455536811 2.6799062451582967 L-1.8166200518646864 2.7286994835751233 L-1.867569781582194 2.7866100451482323 L-1.9165558899959865 2.8536034417069396 L-1.9629200682788501 2.9296059881916126 L-2.0059941122272784 3.0144939787316702 L-2.0451021639691174 3.108125229865881 L-2.0758273807859666 3.197955089331192 L-2.1243437491472377 3.2460713080212913 L-2.194235778906567 3.3047407300068623 L-2.2930959413856566 3.374628471239557 L-2.417258739221643 3.4476953073113332 L-2.49161520221303 3.4854978695447403 L-2.573310411612078 3.522804245155964 L-2.6622718168798953 3.558995050241995 L-2.7582223008185016 3.5934273959643996 L-2.863276956966092 3.6262426305622464 L-2.9746842367762927 3.6559719175582632 L-3.0949170331325915 3.6827058151481173 L-3.221529175002055 3.7053468957589617 L-3.339185645453645 3.721474475604534 A5 5 0 0 1 -3.721474475604534 3.339185645453645 L-3.7053468957589617 3.2215291750020554 L-3.6827058151481173 3.094917033132592 L-3.6559719175582632 2.974684236776293 L-3.626242630562246 2.863276956966092 L-3.5934273959643996 2.758222300818502 L-3.558995050241995 2.662271816879896 L-3.522804245155964 2.573310411612078 L-3.4854978695447403 2.49161520221303 L-3.4476953073113332 2.4172587392216434 L-3.374628471239557 2.2930959413856566 L-3.3047407300068623 2.1942357789065676 L-3.2460713080212913 2.124343749147238 L-3.1979550893311917 2.075827380785967 L-3.108125229865881 2.0451021639691174 L-3.0144939787316702 2.0059941122272784 L-2.9296059881916126 1.9629200682788501 L-2.8536034417069396 1.9165558899959867 L-2.7866100451482323 1.8675697815821943 L-2.7286994835751233 1.8166200518646867 L-2.6799062451582967 1.7643812455536814 L-2.6402256211794928 1.7115441432424006 L-2.6096012969828233 1.6587673257227993 L-2.587958480321751 1.6067017201181855 L-2.575160877635817 1.556016074561549 L-2.5710483058129108 1.507358417887584 L-2.575423626559624 1.4613614715936896 L-2.590170570908901 1.4135559004501577 L-2.6854143407503352 1.2211154566593787 L-2.725444620908296 1.128916125477015 L-2.762333710655718 1.0354156706246103 L-2.8310621379140777 0.8319922123249528 L-2.854438117097011 0.7877609044397106 L-2.8838690507654294 0.7521423328315576 L-2.9211832371803306 0.7206442012648435 L-2.966072672504401 0.6938533092250834 L-3.0181923977190297 0.6723411488604982 L-3.077165910585305 0.6566769706116635 L-3.142585822224985 0.6473739355662353 L-3.2140262661691774 0.6449375511432227 L-3.2910021163427157 0.6498596025510179 L-3.3730120107874284 0.6625926781090674 L-3.4595383516621414 0.6835501692478706 L-3.5500211739833767 0.7131170944309838 L-3.6438820351770063 0.7516708184533161 L-3.729127347122584 0.7934641120696507 L-3.797456904710207 0.7931811635236757 L-3.8883635790382134 0.7852455814642544 L-4.00768636606383 0.7647589859335355 L-4.1471487776509495 0.7286286848788138 L-4.226457184958674 0.7027811737740264 L-4.310604012691385 0.6713935283936932 L-4.399099989313076 0.6340790791578679 L-4.491294572316668 0.5905791864592209 L-4.588783306984214 0.5394982016124032 L-4.688581930446279 0.4817431390197875 L-4.792503076344173 0.41562943366855976 L-4.898041042073943 0.34211079120542864 L-4.992640651253668 0.2703190241715663 A5 5 0 0 1 -4.992640651253668 -0.27031902417156584 L-4.898041042073943 -0.342110791205428 L-4.792503076344173 -0.4156294336685593 L-4.688581930446279 -0.48174313901978705 L-4.588783306984214 -0.5394982016124026 L-4.491294572316668 -0.5905791864592203 L-4.399099989313076 -0.6340790791578674 L-4.310604012691385 -0.6713935283936927 L-4.226457184958674 -0.7027811737740259 L-4.1471487776509495 -0.7286286848788134 L-4.00768636606383 -0.7647589859335351 L-3.8883635790382134 -0.7852455814642539 L-3.797456904710207 -0.7931811635236753 L-3.7291273471225836 -0.7934641120696505 L-3.6438820351770063 -0.7516708184533156 L-3.5500211739833767 -0.7131170944309834 L-3.4595383516621414 -0.6835501692478702 L-3.3730120107874284 -0.662592678109067 L-3.2910021163427157 -0.6498596025510177 L-3.2140262661691774 -0.6449375511432223 L-3.142585822224985 -0.6473739355662349 L-3.077165910585305 -0.6566769706116631 L-3.0181923977190297 -0.6723411488604978 L-2.966072672504401 -0.6938533092250829 L-2.9211832371803306 -0.7206442012648433 L-2.8838690507654294 -0.7521423328315574 L-2.854438117097011 -0.7877609044397104 L-2.8310621379140777 -0.8319922123249526 L-2.762333710655718 -1.0354156706246098 L-2.725444620908296 -1.1289161254770148 L-2.6854143407503352 -1.2211154566593783 L-2.590170570908901 -1.4135559004501574 L-2.575423626559624 -1.4613614715936896 L-2.5710483058129108 -1.5073584178875836 L-2.575160877635817 -1.5560160745615488 L-2.587958480321751 -1.606701720118185 L-2.6096012969828233 -1.6587673257227988 L-2.6402256211794928 -1.7115441432424001 L-2.6799062451582967 -1.764381245553681 L-2.7286994835751233 -1.8166200518646862 L-2.7866100451482323 -1.867569781582194 L-2.8536034417069396 -1.9165558899959863 L-2.9296059881916126 -1.9629200682788497 L-3.0144939787316702 -2.005994112227278 L-3.108125229865881 -2.045102163969117 L-3.197955089331192 -2.0758273807859666 L-3.2460713080212913 -2.1243437491472377 L-3.3047407300068623 -2.194235778906567 L-3.374628471239557 -2.2930959413856566 L-3.4476953073113332 -2.417258739221643 L-3.4854978695447403 -2.49161520221303 L-3.5228042451559642 -2.573310411612078 L-3.558995050241995 -2.662271816879895 L-3.5934273959644 -2.7582223008185016 L-3.6262426305622464 -2.863276956966091 L-3.6559719175582632 -2.9746842367762927 L-3.6827058151481173 -3.0949170331325915 L-3.7053468957589617 -3.221529175002055 L-3.721474475604534 -3.3391856454536444 A5 5 0 0 1 -3.339185645453645 -3.7214744756045337 L-3.221529175002056 -3.7053468957589617 L-3.0949170331325924 -3.6827058151481173 L-2.9746842367762936 -3.655971917558263 L-2.863276956966092 -3.626242630562246 L-2.7582223008185025 -3.5934273959643996 L-2.662271816879896 -3.558995050241995 L-2.5733104116120784 -3.522804245155964 L-2.4916152022130302 -3.4854978695447403 L-2.4172587392216434 -3.4476953073113332 L-2.293095941385657 -3.374628471239557 L-2.1942357789065676 -3.3047407300068623 L-2.124343749147238 -3.2460713080212913 L-2.075827380785967 -3.1979550893311917 L-2.0451021639691174 -3.108125229865881 L-2.0059941122272784 -3.0144939787316702 L-1.9629200682788506 -2.9296059881916126 L-1.9165558899959867 -2.853603441706939 L-1.8675697815821946 -2.7866100451482323 L-1.816620051864687 -2.7286994835751233 L-1.7643812455536814 -2.6799062451582967 L-1.7115441432424006 -2.6402256211794928 L-1.6587673257227993 -2.6096012969828233 L-1.6067017201181855 -2.587958480321751 L-1.5560160745615492 -2.5751608776358164 L-1.507358417887584 -2.5710483058129103 L-1.46136147159369 -2.575423626559624 L-1.4135559004501579 -2.590170570908901 L-1.2211154566593787 -2.6854143407503352 L-1.1289161254770153 -2.725444620908296 L-1.0354156706246103 -2.762333710655718 L-0.831992212324953 -2.8310621379140777 L-0.7877609044397108 -2.854438117097011 L-0.7521423328315578 -2.88386905076543 L-0.7206442012648437 -2.921183237180331 L-0.6938533092250834 -2.966072672504401 L-0.6723411488604982 -3.0181923977190297 L-0.6566769706116635 -3.077165910585305 L-0.6473739355662353 -3.142585822224985 L-0.6449375511432229 -3.2140262661691774 L-0.6498596025510182 -3.2910021163427157 L-0.6625926781090674 -3.373012010787429 L-0.6835501692478708 -3.4595383516621414 L-0.7131170944309838 -3.5500211739833767 L-0.7516708184533163 -3.6438820351770063 L-0.793464112069651 -3.729127347122584 L-0.793181163523676 -3.797456904710207 L-0.7852455814642546 -3.8883635790382134 L-0.7647589859335358 -4.00768636606383 L-0.728628684878814 -4.1471487776509495 L-0.7027811737740266 -4.226457184958675 L-0.6713935283936934 -4.310604012691385 L-0.6340790791578681 -4.399099989313076 L-0.5905791864592211 -4.491294572316668 L-0.5394982016124035 -4.588783306984214 L-0.48174313901978794 -4.688581930446279 L-0.4156294336685602 -4.792503076344173 L-0.34211079120542887 -4.898041042073943 L-0.2703190241715665 -4.992640651253668 A5 5 0 0 1 0.2703190241715654 -4.992640651253668 L0.34211079120542753 -4.898041042073943 L0.41562943366855887 -4.792503076344173 L0.4817431390197868 -4.68858193044628 L0.5394982016124021 -4.588783306984215 L0.5905791864592198 -4.491294572316669 L0.634079079157867 -4.399099989313076 L0.6713935283936924 -4.310604012691385 L0.7027811737740256 -4.226457184958675 L0.728628684878813 -4.14714877765095 L0.7647589859335349 -4.00768636606383 L0.7852455814642536 -3.888363579038214 L0.793181163523675 -3.7974569047102076 L0.7934641120696502 -3.729127347122584 L0.7516708184533153 -3.6438820351770067 L0.7131170944309831 -3.550021173983377 L0.6835501692478699 -3.459538351662142 L0.6625926781090666 -3.373012010787429 L0.6498596025510174 -3.2910021163427157 L0.6449375511432219 -3.214026266169178 L0.6473739355662346 -3.1425858222249854 L0.6566769706116629 -3.0771659105853053 L0.6723411488604976 -3.0181923977190297 L0.6938533092250827 -2.9660726725044015 L0.7206442012648431 -2.921183237180331 L0.7521423328315572 -2.88386905076543 L0.78776090443971 -2.854438117097011 L0.8319922123249524 -2.831062137914078 L1.0354156706246096 -2.7623337106557186 L1.1289161254770146 -2.7254446209082963 L1.2211154566593785 -2.6854143407503357 L1.4135559004501572 -2.5901705709089016 L1.4613614715936893 -2.575423626559624 L1.5073584178875836 -2.571048305812911 L1.5560160745615486 -2.5751608776358172 L1.6067017201181848 -2.5879584803217512 L1.6587673257227986 -2.6096012969828233 L1.7115441432424 -2.640225621179493 L1.7643812455536807 -2.679906245158297 L1.8166200518646862 -2.7286994835751237 L1.867569781582194 -2.786610045148233 L1.916555889995986 -2.85360344170694 L1.9629200682788497 -2.929605988191613 L2.005994112227278 -3.0144939787316707 L2.045102163969117 -3.1081252298658812 L2.0758273807859666 -3.1979550893311925 L2.1243437491472372 -3.2460713080212917 L2.1942357789065667 -3.3047407300068627 L2.293095941385656 -3.3746284712395576 L2.4172587392216425 -3.4476953073113337 L2.4916152022130293 -3.4854978695447407 L2.5733104116120775 -3.5228042451559647 L2.662271816879895 -3.5589950502419954 L2.7582223008185016 -3.593427395964401 L2.863276956966091 -3.6262426305622473 L2.9746842367762927 -3.655971917558264 L3.0949170331325915 -3.682705815148118 L3.221529175002055 -3.705346895758962 L3.3391856454536444 -3.721474475604534 A5 5 0 0 1 3.721474475604534 -3.3391856454536444 Z" id="SvgjsPath1052">
        </path>
      </g>
    </g>
  </g>
</svg>
