<?xml version="1.0" encoding="utf-8" ?>
<svg baseProfile="full" height="100mm" version="1.1" width="200mm" xmlns="http://www.w3.org/2000/svg" xmlns:ev="http://www.w3.org/2001/xml-events" xmlns:xlink="http://www.w3.org/1999/xlink"><defs /><line stroke="black" x1="30" x2="30" y1="24" y2="24" /><path d="M 30 24 A 6 6 0 0 1 30 30" stroke="black" /><line stroke="black" x1="50" x2="50" y1="24" y2="24" /><path d="M 50 24 A 15 15 0 0 1 50 9" stroke="black" /><line stroke="black" x1="63" x2="63" y1="24" y2="24" /><path d="M 63 24 A 15 15 0 0 1 63 39" stroke="black" /><line stroke="black" x1="76" x2="76" y1="24" y2="24" /><path d="M 76 24 A 11 11 0 0 1 76 35" stroke="black" /><line stroke="black" x1="97" x2="97" y1="24" y2="24" /><path d="M 97 24 A 6 6 0 0 1 97 30" stroke="black" /><line stroke="black" x1="112" x2="112" y1="24" y2="24" /><path d="M 112 24 A 7 7 0 0 1 112 17" stroke="black" /><line stroke="black" x1="131" x2="131" y1="24" y2="24" /><path d="M 131 24 A 7 7 0 0 1 131 17" stroke="black" /><line stroke="black" x1="145" x2="145" y1="24" y2="24" /><path d="M 145 24 A 10 10 0 0 1 145 14" stroke="black" /><line stroke="black" x1="159" x2="159" y1="24" y2="24" /><path d="M 159 24 A 19 19 0 0 1 159 5" stroke="black" /><line stroke="black" x1="170" x2="170" y1="24" y2="24" /><path d="M 170 24 A 14 14 0 0 1 170 38" stroke="black" /><line stroke="black" x1="183" x2="183" y1="24" y2="24" /><path d="M 183 24 A 14 14 0 0 1 183 10" stroke="black" /><line stroke="black" x1="205" x2="205" y1="24" y2="24" /><path d="M 205 24 A 8 8 0 0 1 205 16" stroke="black" /><line stroke="black" x1="205" x2="200" y1="24" y2="24" /><line stroke="black" x1="205" x2="200" y1="51" y2="51" /><line stroke="black" x1="205" x2="200" y1="74" y2="74" /><line stroke="black" x1="205" x2="200" y1="94" y2="94" /><line stroke="black" x1="205" x2="200" y1="124" y2="124" /></svg>