<?xml version="1.0" encoding="utf-8" ?>
<svg baseProfile="tiny" height="100%" version="1.2" width="100%" xmlns="http://www.w3.org/2000/svg" xmlns:ev="http://www.w3.org/2001/xml-events" xmlns:xlink="http://www.w3.org/1999/xlink"><defs /><rect fill="none" height="480" stroke="black" width="480" x="0" y="0" /><rect fill="none" height="12" stroke="black" width="12" x="0" y="0" /><rect fill="none" height="12" stroke="black" width="12" x="0" y="468" /><rect fill="none" height="12" stroke="black" width="12" x="12" y="0" /><rect fill="none" height="12" stroke="black" width="12" x="12" y="468" /><rect fill="none" height="12" stroke="black" width="12" x="24" y="0" /><rect fill="none" height="12" stroke="black" width="12" x="24" y="468" /><rect fill="none" height="12" stroke="black" width="12" x="36" y="0" /><rect fill="none" height="12" stroke="black" width="12" x="36" y="468" /><rect fill="none" height="12" stroke="black" width="12" x="48" y="0" /><rect fill="none" height="12" stroke="black" width="12" x="48" y="468" /><rect fill="none" height="12" stroke="black" width="12" x="60" y="0" /><rect fill="none" height="12" stroke="black" width="12" x="60" y="468" /><rect fill="none" height="12" stroke="black" width="12" x="72" y="0" /><rect fill="none" height="12" stroke="black" width="12" x="72" y="468" /><rect fill="none" height="12" stroke="black" width="12" x="84" y="0" /><rect fill="none" height="12" stroke="black" width="12" x="84" y="468" /><rect fill="none" height="12" stroke="black" width="12" x="96" y="0" /><rect fill="none" height="12" stroke="black" width="12" x="96" y="468" /><rect fill="none" height="12" stroke="black" width="12" x="108" y="0" /><rect fill="none" height="12" stroke="black" width="12" x="108" y="468" /><rect fill="none" height="12" stroke="black" width="12" x="120" y="0" /><rect fill="none" height="12" stroke="black" width="12" x="120" y="468" /><rect fill="none" height="12" stroke="black" width="12" x="132" y="0" /><rect fill="none" height="12" stroke="black" width="12" x="132" y="468" /><rect fill="none" height="12" stroke="black" width="12" x="144" y="0" /><rect fill="none" height="12" stroke="black" width="12" x="144" y="468" /><rect fill="none" height="12" stroke="black" width="12" x="156" y="0" /><rect fill="none" height="12" stroke="black" width="12" x="156" y="468" /><rect fill="none" height="12" stroke="black" width="12" x="168" y="0" /><rect fill="none" height="12" stroke="black" width="12" x="168" y="468" /><rect fill="none" height="12" stroke="black" width="12" x="180" y="0" /><rect fill="none" height="12" stroke="black" width="12" x="180" y="468" /><rect fill="none" height="12" stroke="black" width="12" x="192" y="0" /><rect fill="none" height="12" stroke="black" width="12" x="192" y="468" /><rect fill="none" height="12" stroke="black" width="12" x="204" y="0" /><rect fill="none" height="12" stroke="black" width="12" x="204" y="468" /><rect fill="none" height="12" stroke="black" width="12" x="216" y="0" /><rect fill="none" height="12" stroke="black" width="12" x="216" y="468" /><rect fill="none" height="12" stroke="black" width="12" x="228" y="0" /><rect fill="none" height="12" stroke="black" width="12" x="228" y="468" /><rect fill="none" height="12" stroke="black" width="12" x="240" y="0" /><rect fill="none" height="12" stroke="black" width="12" x="240" y="468" /><rect fill="none" height="12" stroke="black" width="12" x="252" y="0" /><rect fill="none" height="12" stroke="black" width="12" x="252" y="468" /><rect fill="none" height="12" stroke="black" width="12" x="264" y="0" /><rect fill="none" height="12" stroke="black" width="12" x="264" y="468" /><rect fill="none" height="12" stroke="black" width="12" x="276" y="0" /><rect fill="none" height="12" stroke="black" width="12" x="276" y="468" /><rect fill="none" height="12" stroke="black" width="12" x="288" y="0" /><rect fill="none" height="12" stroke="black" width="12" x="288" y="468" /><rect fill="none" height="12" stroke="black" width="12" x="300" y="0" /><rect fill="none" height="12" stroke="black" width="12" x="300" y="468" /><rect fill="none" height="12" stroke="black" width="12" x="312" y="0" /><rect fill="none" height="12" stroke="black" width="12" x="312" y="468" /><rect fill="none" height="12" stroke="black" width="12" x="324" y="0" /><rect fill="none" height="12" stroke="black" width="12" x="324" y="468" /><rect fill="none" height="12" stroke="black" width="12" x="336" y="0" /><rect fill="none" height="12" stroke="black" width="12" x="336" y="468" /><rect fill="none" height="12" stroke="black" width="12" x="348" y="0" /><rect fill="none" height="12" stroke="black" width="12" x="348" y="468" /><rect fill="none" height="12" stroke="black" width="12" x="360" y="0" /><rect fill="none" height="12" stroke="black" width="12" x="360" y="468" /><rect fill="none" height="12" stroke="black" width="12" x="372" y="0" /><rect fill="none" height="12" stroke="black" width="12" x="372" y="468" /><rect fill="none" height="12" stroke="black" width="12" x="384" y="0" /><rect fill="none" height="12" stroke="black" width="12" x="384" y="468" /><rect fill="none" height="12" stroke="black" width="12" x="396" y="0" /><rect fill="none" height="12" stroke="black" width="12" x="396" y="468" /><rect fill="none" height="12" stroke="black" width="12" x="408" y="0" /><rect fill="none" height="12" stroke="black" width="12" x="408" y="468" /><rect fill="none" height="12" stroke="black" width="12" x="420" y="0" /><rect fill="none" height="12" stroke="black" width="12" x="420" y="468" /><rect fill="none" height="12" stroke="black" width="12" x="432" y="0" /><rect fill="none" height="12" stroke="black" width="12" x="432" y="468" /><rect fill="none" height="12" stroke="black" width="12" x="444" y="0" /><rect fill="none" height="12" stroke="black" width="12" x="444" y="468" /><rect fill="none" height="12" stroke="black" width="12" x="456" y="0" /><rect fill="none" height="12" stroke="black" width="12" x="456" y="468" /><rect fill="none" height="12" stroke="black" width="12" x="468" y="0" /><rect fill="none" height="12" stroke="black" width="12" x="468" y="468" /><rect fill="none" height="12" stroke="black" width="12" x="0" y="0" /><rect fill="none" height="12" stroke="black" width="12" x="468" y="0" /><rect fill="none" height="12" stroke="black" width="12" x="0" y="12" /><rect fill="none" height="12" stroke="black" width="12" x="468" y="12" /><rect fill="none" height="12" stroke="black" width="12" x="0" y="24" /><rect fill="none" height="12" stroke="black" width="12" x="468" y="24" /><rect fill="none" height="12" stroke="black" width="12" x="0" y="36" /><rect fill="none" height="12" stroke="black" width="12" x="468" y="36" /><rect fill="none" height="12" stroke="black" width="12" x="0" y="48" /><rect fill="none" height="12" stroke="black" width="12" x="468" y="48" /><rect fill="none" height="12" stroke="black" width="12" x="0" y="60" /><rect fill="none" height="12" stroke="black" width="12" x="468" y="60" /><rect fill="none" height="12" stroke="black" width="12" x="0" y="72" /><rect fill="none" height="12" stroke="black" width="12" x="468" y="72" /><rect fill="none" height="12" stroke="black" width="12" x="0" y="84" /><rect fill="none" height="12" stroke="black" width="12" x="468" y="84" /><rect fill="none" height="12" stroke="black" width="12" x="0" y="96" /><rect fill="none" height="12" stroke="black" width="12" x="468" y="96" /><rect fill="none" height="12" stroke="black" width="12" x="0" y="108" /><rect fill="none" height="12" stroke="black" width="12" x="468" y="108" /><rect fill="none" height="12" stroke="black" width="12" x="0" y="120" /><rect fill="none" height="12" stroke="black" width="12" x="468" y="120" /><rect fill="none" height="12" stroke="black" width="12" x="0" y="132" /><rect fill="none" height="12" stroke="black" width="12" x="468" y="132" /><rect fill="none" height="12" stroke="black" width="12" x="0" y="144" /><rect fill="none" height="12" stroke="black" width="12" x="468" y="144" /><rect fill="none" height="12" stroke="black" width="12" x="0" y="156" /><rect fill="none" height="12" stroke="black" width="12" x="468" y="156" /><rect fill="none" height="12" stroke="black" width="12" x="0" y="168" /><rect fill="none" height="12" stroke="black" width="12" x="468" y="168" /><rect fill="none" height="12" stroke="black" width="12" x="0" y="180" /><rect fill="none" height="12" stroke="black" width="12" x="468" y="180" /><rect fill="none" height="12" stroke="black" width="12" x="0" y="192" /><rect fill="none" height="12" stroke="black" width="12" x="468" y="192" /><rect fill="none" height="12" stroke="black" width="12" x="0" y="204" /><rect fill="none" height="12" stroke="black" width="12" x="468" y="204" /><rect fill="none" height="12" stroke="black" width="12" x="0" y="216" /><rect fill="none" height="12" stroke="black" width="12" x="468" y="216" /><rect fill="none" height="12" stroke="black" width="12" x="0" y="228" /><rect fill="none" height="12" stroke="black" width="12" x="468" y="228" /><rect fill="none" height="12" stroke="black" width="12" x="0" y="240" /><rect fill="none" height="12" stroke="black" width="12" x="468" y="240" /><rect fill="none" height="12" stroke="black" width="12" x="0" y="252" /><rect fill="none" height="12" stroke="black" width="12" x="468" y="252" /><rect fill="none" height="12" stroke="black" width="12" x="0" y="264" /><rect fill="none" height="12" stroke="black" width="12" x="468" y="264" /><rect fill="none" height="12" stroke="black" width="12" x="0" y="276" /><rect fill="none" height="12" stroke="black" width="12" x="468" y="276" /><rect fill="none" height="12" stroke="black" width="12" x="0" y="288" /><rect fill="none" height="12" stroke="black" width="12" x="468" y="288" /><rect fill="none" height="12" stroke="black" width="12" x="0" y="300" /><rect fill="none" height="12" stroke="black" width="12" x="468" y="300" /><rect fill="none" height="12" stroke="black" width="12" x="0" y="312" /><rect fill="none" height="12" stroke="black" width="12" x="468" y="312" /><rect fill="none" height="12" stroke="black" width="12" x="0" y="324" /><rect fill="none" height="12" stroke="black" width="12" x="468" y="324" /><rect fill="none" height="12" stroke="black" width="12" x="0" y="336" /><rect fill="none" height="12" stroke="black" width="12" x="468" y="336" /><rect fill="none" height="12" stroke="black" width="12" x="0" y="348" /><rect fill="none" height="12" stroke="black" width="12" x="468" y="348" /><rect fill="none" height="12" stroke="black" width="12" x="0" y="360" /><rect fill="none" height="12" stroke="black" width="12" x="468" y="360" /><rect fill="none" height="12" stroke="black" width="12" x="0" y="372" /><rect fill="none" height="12" stroke="black" width="12" x="468" y="372" /><rect fill="none" height="12" stroke="black" width="12" x="0" y="384" /><rect fill="none" height="12" stroke="black" width="12" x="468" y="384" /><rect fill="none" height="12" stroke="black" width="12" x="0" y="396" /><rect fill="none" height="12" stroke="black" width="12" x="468" y="396" /><rect fill="none" height="12" stroke="black" width="12" x="0" y="408" /><rect fill="none" height="12" stroke="black" width="12" x="468" y="408" /><rect fill="none" height="12" stroke="black" width="12" x="0" y="420" /><rect fill="none" height="12" stroke="black" width="12" x="468" y="420" /><rect fill="none" height="12" stroke="black" width="12" x="0" y="432" /><rect fill="none" height="12" stroke="black" width="12" x="468" y="432" /><rect fill="none" height="12" stroke="black" width="12" x="0" y="444" /><rect fill="none" height="12" stroke="black" width="12" x="468" y="444" /><rect fill="none" height="12" stroke="black" width="12" x="0" y="456" /><rect fill="none" height="12" stroke="black" width="12" x="468" y="456" /><rect fill="none" height="12" stroke="black" width="12" x="0" y="468" /><rect fill="none" height="12" stroke="black" width="12" x="468" y="468" /><rect fill="none" height="96" stroke="black" width="48" x="216.0" y="384" /><rect fill="none" height="48" stroke="black" width="24" x="12" y="12" /><rect fill="none" height="48" stroke="black" width="24" x="444" y="12" /><rect fill="none" height="48" stroke="black" width="24" x="12" y="420" /><rect fill="none" height="48" stroke="black" width="24" x="444" y="420" /><polygon fill="none" points="0,432 240.0,-48 480,432" stroke="black" /></svg>